<svg version="1.1" id="Layer_1" xmlns="http://www.w3.org/2000/svg" xmlns:xlink="http://www.w3.org/1999/xlink" x="0px" y="0px"
	 viewBox="0 0 503.2 503.2" style="overflow:hidden" xml:space="preserve">
<path style="fill:#ffe715ff;" d="M479.2,227.6c-13.6,0-24,10.4-24,24c0,112-91.2,203.2-203.2,203.2S48.8,363.6,48.8,251.6
	S140,47.6,252,47.6c58.4,0,113.6,28,152,68h-43.2c-13.6,0-24,10.4-24,24s10.4,24,24,24H484v-124c0-13.6-10.4-24-24-24
	s-24,10.4-24,24V82C388,30,321.6,0.4,251.2,0.4C112.8,0.4,0,113.2,0,251.6s113.6,251.2,252,251.2S503.2,390,503.2,251.6
	C503.2,238,492.8,227.6,479.2,227.6z"/>
<path style="fill:#ffe715ff;" d="M336.8,139.6c0,13.6,10.4,24,24,24h124.8c-34.4-80-115.2-140-210.4-140
	c-124.8,0-226.4,101.6-226.4,227.2S150.4,478,276,478s227.2-101.6,227.2-227.2c0-1.6,0-4,0-5.6c-3.2-10.4-12-17.6-23.2-17.6
	c-13.6,0-24,10.4-24,24c-0.8,112-92,203.2-204,203.2S48.8,363.6,48.8,251.6S140,47.6,252,47.6c58.4,0,113.6,28,152,68h-43.2
	C347.2,115.6,336.8,126,336.8,139.6z"/>
</svg>